<svg xmlns="http://www.w3.org/2000/svg" viewBox="0 0 279.28 64.86"><path d="M138.51,221.8a23.2,23.2,0,0,1-10.59-2.3,16.76,16.76,0,0,1-7-6.48,19,19,0,0,1-2.5-9.9V191.18a18.89,18.89,0,0,1,2.5-9.94,16.92,16.92,0,0,1,7-6.44,23.2,23.2,0,0,1,10.59-2.29q9,0,14.36,4.62t5.62,12.58H147.68A7.92,7.92,0,0,0,145,184a9.74,9.74,0,0,0-6.53-2,9.54,9.54,0,0,0-6.83,2.38,8.93,8.93,0,0,0-2.51,6.79v12a9.05,9.05,0,0,0,2.51,6.83,9.44,9.44,0,0,0,6.83,2.42,9.74,9.74,0,0,0,6.53-2,7.9,7.9,0,0,0,2.64-5.75h10.81q-.26,7.95-5.62,12.58T138.51,221.8Z" transform="translate(-76.36 -159.97)"/><path d="M192.85,220.93q-6.82,0-10.68-3.8t-3.85-10.47V183.14H165.44v-9.77h12.88V160h10.9v13.4h18.24v9.77H189.22v23.52q0,4.5,4.41,4.5h13v9.77Z" transform="translate(-76.36 -159.97)"/><path d="M235.72,221.8a22.58,22.58,0,0,1-10.55-2.34,16.89,16.89,0,0,1-7-6.53,19,19,0,0,1-2.46-9.81V191.18a19.06,19.06,0,0,1,2.46-9.81,16.89,16.89,0,0,1,7-6.53,22.7,22.7,0,0,1,10.55-2.33,22.21,22.21,0,0,1,10.42,2.33,17,17,0,0,1,6.92,6.53,19.06,19.06,0,0,1,2.46,9.81v8.56H226.21v3.38q0,5,2.42,7.56c1.61,1.71,4,2.55,7.18,2.55a12,12,0,0,0,5.88-1.25,5.59,5.59,0,0,0,2.85-3.67h10.64a15.15,15.15,0,0,1-6.53,9.81A22.21,22.21,0,0,1,235.72,221.8Zm9.34-28.11V191.1q0-4.93-2.33-7.57t-7-2.64c-3.11,0-5.48.9-7.09,2.69s-2.42,4.32-2.42,7.6V193l19.63-.17Z" transform="translate(-76.36 -159.97)"/><path d="M284.59,221.8a23.22,23.22,0,0,1-10.6-2.3,16.79,16.79,0,0,1-7-6.48,18.87,18.87,0,0,1-2.51-9.9V191.18a18.8,18.8,0,0,1,2.51-9.94,17,17,0,0,1,7-6.44,23.21,23.21,0,0,1,10.6-2.29q9,0,14.35,4.62t5.62,12.58H293.75a7.92,7.92,0,0,0-2.64-5.75,9.73,9.73,0,0,0-6.52-2,9.57,9.57,0,0,0-6.84,2.38,8.92,8.92,0,0,0-2.5,6.79v12a9,9,0,0,0,2.5,6.83,9.46,9.46,0,0,0,6.84,2.42,9.73,9.73,0,0,0,6.52-2,7.9,7.9,0,0,0,2.64-5.75h10.81q-.26,7.95-5.62,12.58T284.59,221.8Z" transform="translate(-76.36 -159.97)"/><polygon points="25.99 18.35 25.99 9.67 0 9.67 0 17.96 0 18.35 0 55.12 0 57.82 0 64.86 25.98 64.86 25.98 55.12 9.74 55.12 9.74 18.35 25.99 18.35" style="fill:#1071b6"/><path d="M318,211.6l25.82-14.37v-.34L318,182.51V171l37.63,21.7v8.8L318,223.16Z" transform="translate(-76.36 -159.97)" style="fill:#1071b6"/></svg>