<svg xmlns="http://www.w3.org/2000/svg" viewBox="0 0 216.1 50.4"><path d="M149.6,185.3a7.57,7.57,0,0,1,5.3-1.8,7.16,7.16,0,0,1,5,1.6,5.91,5.91,0,0,1,2,4.4h8.4a12.8,12.8,0,0,0-4.3-9.7q-4.2-3.6-11.1-3.6a17.7,17.7,0,0,0-8.2,1.8,13.3,13.3,0,0,0-5.5,5,14.43,14.43,0,0,0-1.9,7.7v9.2a14.91,14.91,0,0,0,1.9,7.7,12.72,12.72,0,0,0,5.5,5,17.7,17.7,0,0,0,8.2,1.8q6.9,0,11.1-3.6a12.47,12.47,0,0,0,4.3-9.7H162a5.91,5.91,0,0,1-2,4.4,7.67,7.67,0,0,1-5,1.6,7.19,7.19,0,0,1-5.3-1.9,6.89,6.89,0,0,1-1.9-5.3v-9.3A6.5,6.5,0,0,1,149.6,185.3Z" transform="translate(-106.8 -166.3)" style="fill:#fff"/><path d="M188.7,210.7c2,2,4.7,2.9,8.3,2.9h10.6V206h-10c-2.3,0-3.4-1.2-3.4-3.5V184.3h14.1v-7.6H194.2V166.3h-8.4v10.4h-10v7.6h10v18.2A10.6,10.6,0,0,0,188.7,210.7Z" transform="translate(-106.8 -166.3)" style="fill:#fff"/><path d="M238.2,178a17.28,17.28,0,0,0-8.1-1.8,18,18,0,0,0-8.2,1.8,13.72,13.72,0,0,0-5.4,5,14.55,14.55,0,0,0-1.9,7.6v9.2a14.55,14.55,0,0,0,1.9,7.6,14,14,0,0,0,5.4,5.1,17.41,17.41,0,0,0,8.2,1.8,17.06,17.06,0,0,0,10-2.8,11.64,11.64,0,0,0,5-7.6h-8.2a4.12,4.12,0,0,1-2.2,2.8,10,10,0,0,1-4.5,1,7.49,7.49,0,0,1-5.6-2,8.52,8.52,0,0,1-1.9-5.9v-2.6h22.7v-6.6a14.55,14.55,0,0,0-1.9-7.6A13.45,13.45,0,0,0,238.2,178Zm-15.5,12.6a8.38,8.38,0,0,1,1.9-5.9,6.94,6.94,0,0,1,5.5-2.1,7,7,0,0,1,5.4,2,8.67,8.67,0,0,1,1.8,5.9v1.3l-14.6.1v-1.3Z" transform="translate(-106.8 -166.3)" style="fill:#fff"/><path d="M259.7,212.5a17.7,17.7,0,0,0,8.2,1.8q6.9,0,11.1-3.6a12.47,12.47,0,0,0,4.3-9.7H275a5.91,5.91,0,0,1-2,4.4,7.77,7.77,0,0,1-5.1,1.6,7.19,7.19,0,0,1-5.3-1.9,6.89,6.89,0,0,1-1.9-5.3v-9.3a7,7,0,0,1,1.9-5.3A8.81,8.81,0,0,1,273,185a5.91,5.91,0,0,1,2,4.4h8.4a12.8,12.8,0,0,0-4.3-9.7q-4.2-3.6-11.1-3.6a17.7,17.7,0,0,0-8.2,1.8,13.3,13.3,0,0,0-5.5,5,14.43,14.43,0,0,0-1.9,7.7v9.2a14.91,14.91,0,0,0,1.9,7.7A11.9,11.9,0,0,0,259.7,212.5Z" transform="translate(-106.8 -166.3)" style="fill:#fff"/><polygon points="20.1 42.8 7.6 42.8 7.6 14.4 20.1 14.4 20.1 7.7 0 7.7 0 14.1 0 14.4 0 42.8 0 44.9 0 50.4 20.1 50.4 20.1 42.8" style="fill:#fff"/><polygon points="216.1 25.5 187 8.7 187 17.6 206.9 28.7 206.9 29 187 40.1 187 49.1 216.1 32.3 216.1 25.5" style="fill:#fff"/></svg>